<svg xmlns="http://www.w3.org/2000/svg" width="48" height="46" fill="none" viewBox="0 0 48 46"><path fill="#10b981" d="M25.946 44.938c-.664.845-2.021.375-2.021-.698V33.937a2.26 2.26 0 0 0-2.262-2.262H10.287c-.92 0-1.456-1.04-.92-1.788l7.48-10.471c1.07-1.497 0-3.578-1.842-3.578H1.237c-.92 0-1.456-1.04-.92-1.788L10.013.474c.214-.297.556-.474.92-.474h28.894c.92 0 1.456 1.04.92 1.788l-7.48 10.471c-1.07 1.498 0 3.579 1.842 3.579h11.377c.943 0 1.473 1.088.89 1.83L25.947 44.94z" style="fill:#10b981;fill:color(display-p3 .065 .725 .506);fill-opacity:1"/><mask id="a" width="48" height="46" x="0" y="0" maskUnits="userSpaceOnUse" style="mask-type:alpha"><path fill="#000" d="M25.842 44.938c-.664.844-2.021.375-2.021-.698V33.937a2.26 2.26 0 0 0-2.262-2.262H10.183c-.92 0-1.456-1.04-.92-1.788l7.48-10.471c1.07-1.498 0-3.579-1.842-3.579H1.133c-.92 0-1.456-1.04-.92-1.787L9.91.473c.214-.297.556-.474.92-.474h28.894c.92 0 1.456 1.04.92 1.788l-7.48 10.471c-1.07 1.498 0 3.578 1.842 3.578h11.377c.943 0 1.473 1.088.89 1.832L25.843 44.94z" style="fill:#000;fill-opacity:1"/></mask><g mask="url(#a)"><g filter="url(#b)"><ellipse cx="5.508" cy="14.704" fill="#d1fae5" rx="5.508" ry="14.704" style="fill:#d1fae5;fill:color(display-p3 .82 .98 .898);fill-opacity:1" transform="matrix(.00324 1 1 -.00324 -4.47 31.516)"/></g><g filter="url(#c)"><ellipse cx="10.399" cy="29.851" fill="#d1fae5" rx="10.399" ry="29.851" style="fill:#d1fae5;fill:color(display-p3 .82 .98 .898);fill-opacity:1" transform="matrix(.00324 1 1 -.00324 -39.328 7.883)"/></g><g filter="url(#d)"><ellipse cx="5.508" cy="30.487" fill="#059669" rx="5.508" ry="30.487" style="fill:#059669;fill:color(display-p3 .02 .588 .4);fill-opacity:1" transform="rotate(89.814 -25.913 -14.639)scale(1 -1)"/></g><g filter="url(#e)"><ellipse cx="5.508" cy="30.599" fill="#059669" rx="5.508" ry="30.599" style="fill:#059669;fill:color(display-p3 .02 .588 .4);fill-opacity:1" transform="rotate(89.814 -32.644 -3.334)scale(1 -1)"/></g><g filter="url(#f)"><ellipse cx="5.508" cy="30.599" fill="#059669" rx="5.508" ry="30.599" style="fill:#059669;fill:color(display-p3 .02 .588 .4);fill-opacity:1" transform="rotate(89.814 -25.913 -14.639)scale(1 -1)"/></g><g filter="url(#g)"><ellipse cx="13.847" cy="6.734" fill="#059669" rx="13.847" ry="6.734" style="fill:#059669;fill:color(display-p3 .02 .588 .4);fill-opacity:1" transform="rotate(89.814 -25.913 -14.639)scale(1 -1)"/></g><g filter="url(#h)"><ellipse cx="13.847" cy="6.733" fill="#10b981" rx="13.847" ry="6.733" style="fill:#10b981;fill:color(display-p3 .065 .725 .506);fill-opacity:1" transform="matrix(0 1 1 0 -37.946 28.365)"/></g><g filter="url(#i)"><ellipse cx="5.508" cy="1.321" fill="#d1fae5" rx="5.508" ry="1.321" style="fill:#d1fae5;fill:color(display-p3 .82 .98 .898);fill-opacity:1" transform="matrix(.00428 1 1 -.00428 -4.47 31.516)"/></g><g filter="url(#j)"><ellipse cx="5.508" cy="1.539" fill="#d1fae5" rx="5.508" ry="1.539" style="fill:#d1fae5;fill:color(display-p3 .82 .98 .898);fill-opacity:1" transform="matrix(.00428 1 1 -.00428 -4.47 31.516)"/></g></g><defs><filter id="b" width="39.346" height="38.961" x="-14.114" y="-2.382" color-interpolation-filters="sRGB" filterUnits="userSpaceOnUse"><feFlood flood-opacity="0" result="BackgroundImageFix"/><feBlend in="SourceGraphic" in2="BackgroundImageFix" result="shape"/><feGaussianBlur result="effect1_foregroundBlur_1_6" stdDeviation="2"/></filter><filter id="c" width="49.503" height="56.221" x="-24.271" y="-20.489" color-interpolation-filters="sRGB" filterUnits="userSpaceOnUse"><feFlood flood-opacity="0" result="BackgroundImageFix"/><feBlend in="SourceGraphic" in2="BackgroundImageFix" result="shape"/><feGaussianBlur result="effect1_foregroundBlur_1_6" stdDeviation="7.5"/></filter><filter id="d" width="37.476" height="42.392" x="-9.223" y="2.492" color-interpolation-filters="sRGB" filterUnits="userSpaceOnUse"><feFlood flood-opacity="0" result="BackgroundImageFix"/><feBlend in="SourceGraphic" in2="BackgroundImageFix" result="shape"/><feGaussianBlur result="effect1_foregroundBlur_1_6" stdDeviation="5"/></filter><filter id="e" width="39.803" height="42.892" x="-10.348" y="2.578" color-interpolation-filters="sRGB" filterUnits="userSpaceOnUse"><feFlood flood-opacity="0" result="BackgroundImageFix"/><feBlend in="SourceGraphic" in2="BackgroundImageFix" result="shape"/><feGaussianBlur result="effect1_foregroundBlur_1_6" stdDeviation="5.5"/></filter><filter id="f" width="51.856" height="58.695" x="-15.934" y="3.322" color-interpolation-filters="sRGB" filterUnits="userSpaceOnUse"><feFlood flood-opacity="0" result="BackgroundImageFix"/><feBlend in="SourceGraphic" in2="BackgroundImageFix" result="shape"/><feGaussianBlur result="effect1_foregroundBlur_1_6" stdDeviation="8"/></filter><filter id="g" width="131.16" height="216.034" x="-66.827" y="-92.036" color-interpolation-filters="sRGB" filterUnits="userSpaceOnUse"><feFlood flood-opacity="0" result="BackgroundImageFix"/><feBlend in="SourceGraphic" in2="BackgroundImageFix" result="shape"/><feGaussianBlur result="effect1_foregroundBlur_1_6" stdDeviation="21"/></filter><filter id="h" width="130.798" height="215.421" x="-69.011" y="-99.099" color-interpolation-filters="sRGB" filterUnits="userSpaceOnUse"><feFlood flood-opacity="0" result="BackgroundImageFix"/><feBlend in="SourceGraphic" in2="BackgroundImageFix" result="shape"/><feGaussianBlur result="effect1_foregroundBlur_1_6" stdDeviation="21"/></filter><filter id="i" width="39.346" height="38.961" x="-14.114" y="-2.382" color-interpolation-filters="sRGB" filterUnits="userSpaceOnUse"><feFlood flood-opacity="0" result="BackgroundImageFix"/><feBlend in="SourceGraphic" in2="BackgroundImageFix" result="shape"/><feGaussianBlur result="effect1_foregroundBlur_1_6" stdDeviation="2"/></filter><filter id="j" width="39.346" height="38.961" x="-14.114" y="-2.382" color-interpolation-filters="sRGB" filterUnits="userSpaceOnUse"><feFlood flood-opacity="0" result="BackgroundImageFix"/><feBlend in="SourceGraphic" in2="BackgroundImageFix" result="shape"/><feGaussianBlur result="effect1_foregroundBlur_1_6" stdDeviation="2"/></filter></defs></svg>